<svg xmlns="http://www.w3.org/2000/svg" viewBox="0 0 110.5 46.10238907849829" role="img"><title>BUNKERSNEAKERS</title><path fill-rule="evenodd" fill="#F4F2EC" d="M0 0H12L16 4V9L14 11L17 14V20L13 24H0ZM6 5.5h5.5v3.5h-5.5ZM6 14.5h6.5v4.5h-6.5ZM19.5 0H25.5V19H29.5V0H35.5V20L31.5 24H23.5L19.5 20ZM38 24V0H44L48 11V0H54V24H48L44 13V24ZM56.5 0H62.5V9L67.5 0H73.5L67 12L73.5 24H67.5L62.5 15V24H56.5ZM76 0H91V5H82V9.5H89V14.5H82V19H91V24H76ZM93.5 0H105.5L109.5 4V10L106.5 13L110.5 24H104.5L101.5 14.5H99.5V24H93.5ZM99.5 5h5v4.5h-5Z"/><path fill-rule="evenodd" fill="#C6FF00" d="M6 5.5h5.5v3.5h-5.5ZM6 14.5h6.5v4.5h-6.5Z"/><g transform="translate(0 28) scale(0.7542662116040956)"><path fill-rule="evenodd" fill="#858585" d="M16 0V5H6V9.5H12L16 13.5V20L12 24H0V19H10V14.5H4L0 10.5V4L4 0ZM18.5 24V0H24.5L28.5 11V0H34.5V24H28.5L24.5 13V24ZM37 0H52V5H43V9.5H50V14.5H43V19H52V24H37ZM54.5 24V6L60.5 0H65.5L71.5 6V24H65.5V18H60.5V24ZM60.5 7h5v6h-5ZM74 0H80V9L85 0H91L84.5 12L91 24H85L80 15V24H74ZM93.5 0H108.5V5H99.5V9.5H106.5V14.5H99.5V19H108.5V24H93.5ZM111 0H123L127 4V10L124 13L128 24H122L119 14.5H117V24H111ZM117 5h5v4.5h-5ZM146.5 0V5H136.5V9.5H142.5L146.5 13.5V20L142.5 24H130.5V19H140.5V14.5H134.5L130.5 10.5V4L134.5 0Z"/></g></svg>
